<mxfile host="65bd71144e">
    <diagram id="wleMfXMyCIqD9ZGxj8FN" name="Page-1">
        <mxGraphModel dx="1417" dy="790" grid="1" gridSize="10" guides="1" tooltips="1" connect="1" arrows="1" fold="1" page="1" pageScale="1" pageWidth="850" pageHeight="1100" math="0" shadow="0">
            <root>
                <mxCell id="0"/>
                <mxCell id="1" parent="0"/>
                <mxCell id="6" value="" style="edgeStyle=none;html=1;" parent="1" source="2" target="5" edge="1">
                    <mxGeometry relative="1" as="geometry"/>
                </mxCell>
                <mxCell id="2" value="start" style="ellipse;whiteSpace=wrap;html=1;" parent="1" vertex="1">
                    <mxGeometry x="280" y="40" width="120" height="60" as="geometry"/>
                </mxCell>
                <mxCell id="8" value="" style="edgeStyle=none;html=1;" parent="1" source="5" target="7" edge="1">
                    <mxGeometry relative="1" as="geometry"/>
                </mxCell>
                <mxCell id="5" value="int[,] array = new int[5, 5];&lt;br&gt;int[,] newArray = new int[5, ];" style="whiteSpace=wrap;html=1;" parent="1" vertex="1">
                    <mxGeometry x="247.5" y="170" width="185" height="50" as="geometry"/>
                </mxCell>
                <mxCell id="12" value="" style="edgeStyle=none;html=1;" parent="1" source="7" target="11" edge="1">
                    <mxGeometry relative="1" as="geometry"/>
                </mxCell>
                <mxCell id="7" value="for(int row = 0; row &amp;lt; array.GetLength(0); row++)" style="shape=hexagon;perimeter=hexagonPerimeter2;whiteSpace=wrap;html=1;fixedSize=1;" parent="1" vertex="1">
                    <mxGeometry x="170" y="300" width="340" height="40" as="geometry"/>
                </mxCell>
                <mxCell id="14" value="" style="edgeStyle=none;html=1;" parent="1" source="11" target="13" edge="1">
                    <mxGeometry relative="1" as="geometry"/>
                </mxCell>
                <mxCell id="11" value="for(int column = 0; column &amp;lt; array.GetLength(1); column++)" style="shape=hexagon;perimeter=hexagonPerimeter2;whiteSpace=wrap;html=1;fixedSize=1;" parent="1" vertex="1">
                    <mxGeometry x="180" y="390" width="330" height="70" as="geometry"/>
                </mxCell>
                <mxCell id="13" value="array[row, column] = new Random(),Next(0, 10);" style="whiteSpace=wrap;html=1;" parent="1" vertex="1">
                    <mxGeometry x="160" y="495" width="350" height="55" as="geometry"/>
                </mxCell>
            </root>
        </mxGraphModel>
    </diagram>
    <diagram id="pptmlpkj3A-QnfQ2jZHQ" name="Page-2">
        <mxGraphModel dx="1417" dy="790" grid="1" gridSize="10" guides="1" tooltips="1" connect="1" arrows="1" fold="1" page="1" pageScale="1" pageWidth="850" pageHeight="1100" math="0" shadow="0">
            <root>
                <mxCell id="AN06cRyhFbYd32eV-Q_g-0"/>
                <mxCell id="AN06cRyhFbYd32eV-Q_g-1" parent="AN06cRyhFbYd32eV-Q_g-0"/>
                <mxCell id="AN06cRyhFbYd32eV-Q_g-9" value="" style="edgeStyle=none;html=1;" parent="AN06cRyhFbYd32eV-Q_g-1" source="AN06cRyhFbYd32eV-Q_g-2" target="AN06cRyhFbYd32eV-Q_g-8" edge="1">
                    <mxGeometry relative="1" as="geometry"/>
                </mxCell>
                <mxCell id="AN06cRyhFbYd32eV-Q_g-2" value="void FillArray(int[,] fill)" style="ellipse;whiteSpace=wrap;html=1;" parent="AN06cRyhFbYd32eV-Q_g-1" vertex="1">
                    <mxGeometry x="1128.75" y="30" width="200" height="75" as="geometry"/>
                </mxCell>
                <mxCell id="AN06cRyhFbYd32eV-Q_g-60" value="" style="edgeStyle=none;html=1;" parent="AN06cRyhFbYd32eV-Q_g-1" source="AN06cRyhFbYd32eV-Q_g-4" target="AN06cRyhFbYd32eV-Q_g-59" edge="1">
                    <mxGeometry relative="1" as="geometry"/>
                </mxCell>
                <mxCell id="AN06cRyhFbYd32eV-Q_g-4" value="int[,] array = new int[5, 5];&lt;br&gt;" style="rounded=0;whiteSpace=wrap;html=1;" parent="AN06cRyhFbYd32eV-Q_g-1" vertex="1">
                    <mxGeometry x="328" y="260" width="195" height="25" as="geometry"/>
                </mxCell>
                <mxCell id="AN06cRyhFbYd32eV-Q_g-23" value="" style="edgeStyle=none;html=1;" parent="AN06cRyhFbYd32eV-Q_g-1" source="AN06cRyhFbYd32eV-Q_g-6" target="AN06cRyhFbYd32eV-Q_g-21" edge="1">
                    <mxGeometry relative="1" as="geometry"/>
                </mxCell>
                <mxCell id="AN06cRyhFbYd32eV-Q_g-6" value="start" style="ellipse;whiteSpace=wrap;html=1;" parent="AN06cRyhFbYd32eV-Q_g-1" vertex="1">
                    <mxGeometry x="365.5" y="30" width="120" height="60" as="geometry"/>
                </mxCell>
                <mxCell id="AN06cRyhFbYd32eV-Q_g-11" value="" style="edgeStyle=none;html=1;" parent="AN06cRyhFbYd32eV-Q_g-1" source="AN06cRyhFbYd32eV-Q_g-8" target="AN06cRyhFbYd32eV-Q_g-10" edge="1">
                    <mxGeometry relative="1" as="geometry"/>
                </mxCell>
                <mxCell id="AN06cRyhFbYd32eV-Q_g-76" style="edgeStyle=none;html=1;entryX=1;entryY=0.5;entryDx=0;entryDy=0;" parent="AN06cRyhFbYd32eV-Q_g-1" source="AN06cRyhFbYd32eV-Q_g-8" target="AN06cRyhFbYd32eV-Q_g-17" edge="1">
                    <mxGeometry relative="1" as="geometry">
                        <mxPoint x="1450" y="350" as="targetPoint"/>
                        <Array as="points">
                            <mxPoint x="1510" y="203"/>
                            <mxPoint x="1510" y="350"/>
                            <mxPoint x="1510" y="500"/>
                        </Array>
                    </mxGeometry>
                </mxCell>
                <mxCell id="AN06cRyhFbYd32eV-Q_g-8" value="for(int row = 0; row &amp;lt; fill.GetLength(0); row++)" style="shape=hexagon;perimeter=hexagonPerimeter2;whiteSpace=wrap;html=1;fixedSize=1;" parent="AN06cRyhFbYd32eV-Q_g-1" vertex="1">
                    <mxGeometry x="1068.75" y="177.5" width="320" height="50.5" as="geometry"/>
                </mxCell>
                <mxCell id="AN06cRyhFbYd32eV-Q_g-13" value="" style="edgeStyle=none;html=1;" parent="AN06cRyhFbYd32eV-Q_g-1" source="AN06cRyhFbYd32eV-Q_g-10" target="AN06cRyhFbYd32eV-Q_g-12" edge="1">
                    <mxGeometry relative="1" as="geometry"/>
                </mxCell>
                <mxCell id="AN06cRyhFbYd32eV-Q_g-16" style="edgeStyle=none;html=1;entryX=0;entryY=0.5;entryDx=0;entryDy=0;" parent="AN06cRyhFbYd32eV-Q_g-1" source="AN06cRyhFbYd32eV-Q_g-10" target="AN06cRyhFbYd32eV-Q_g-8" edge="1">
                    <mxGeometry relative="1" as="geometry">
                        <Array as="points">
                            <mxPoint x="1008.75" y="285"/>
                            <mxPoint x="1008.75" y="203"/>
                        </Array>
                    </mxGeometry>
                </mxCell>
                <mxCell id="AN06cRyhFbYd32eV-Q_g-10" value="for(int column = 0; column &amp;lt; fill.GetLegnth(1); column++)" style="shape=hexagon;perimeter=hexagonPerimeter2;whiteSpace=wrap;html=1;fixedSize=1;" parent="AN06cRyhFbYd32eV-Q_g-1" vertex="1">
                    <mxGeometry x="1068.75" y="260" width="320" height="50" as="geometry"/>
                </mxCell>
                <mxCell id="AN06cRyhFbYd32eV-Q_g-15" style="edgeStyle=none;html=1;entryX=1;entryY=0.5;entryDx=0;entryDy=0;" parent="AN06cRyhFbYd32eV-Q_g-1" source="AN06cRyhFbYd32eV-Q_g-12" target="AN06cRyhFbYd32eV-Q_g-10" edge="1">
                    <mxGeometry relative="1" as="geometry">
                        <Array as="points">
                            <mxPoint x="1448.75" y="400"/>
                            <mxPoint x="1448.75" y="285"/>
                        </Array>
                    </mxGeometry>
                </mxCell>
                <mxCell id="AN06cRyhFbYd32eV-Q_g-12" value="fill[row, column] = new Random().Next(0, 10);" style="whiteSpace=wrap;html=1;" parent="AN06cRyhFbYd32eV-Q_g-1" vertex="1">
                    <mxGeometry x="1083.75" y="380" width="290" height="40" as="geometry"/>
                </mxCell>
                <mxCell id="AN06cRyhFbYd32eV-Q_g-17" value="end" style="ellipse;whiteSpace=wrap;html=1;" parent="AN06cRyhFbYd32eV-Q_g-1" vertex="1">
                    <mxGeometry x="1168.75" y="470" width="120" height="60" as="geometry"/>
                </mxCell>
                <mxCell id="AN06cRyhFbYd32eV-Q_g-26" value="" style="edgeStyle=none;html=1;" parent="AN06cRyhFbYd32eV-Q_g-1" source="AN06cRyhFbYd32eV-Q_g-20" target="AN06cRyhFbYd32eV-Q_g-25" edge="1">
                    <mxGeometry relative="1" as="geometry"/>
                </mxCell>
                <mxCell id="AN06cRyhFbYd32eV-Q_g-20" value="void SelectArray(int[,] mrArray, int[] mrBrainTemp, int rowAr" style="ellipse;whiteSpace=wrap;html=1;" parent="AN06cRyhFbYd32eV-Q_g-1" vertex="1">
                    <mxGeometry x="1056.25" y="610" width="345" height="60" as="geometry"/>
                </mxCell>
                <mxCell id="AN06cRyhFbYd32eV-Q_g-58" value="" style="edgeStyle=none;html=1;" parent="AN06cRyhFbYd32eV-Q_g-1" source="AN06cRyhFbYd32eV-Q_g-21" target="AN06cRyhFbYd32eV-Q_g-57" edge="1">
                    <mxGeometry relative="1" as="geometry"/>
                </mxCell>
                <mxCell id="AN06cRyhFbYd32eV-Q_g-21" value="int columnArray = int.Parse(Console.ReadLine());&lt;br&gt;" style="shape=parallelogram;perimeter=parallelogramPerimeter;whiteSpace=wrap;html=1;fixedSize=1;" parent="AN06cRyhFbYd32eV-Q_g-1" vertex="1">
                    <mxGeometry x="276" y="130" width="299" height="35" as="geometry"/>
                </mxCell>
                <mxCell id="AN06cRyhFbYd32eV-Q_g-28" value="" style="edgeStyle=none;html=1;" parent="AN06cRyhFbYd32eV-Q_g-1" source="AN06cRyhFbYd32eV-Q_g-25" target="AN06cRyhFbYd32eV-Q_g-27" edge="1">
                    <mxGeometry relative="1" as="geometry"/>
                </mxCell>
                <mxCell id="AN06cRyhFbYd32eV-Q_g-25" value="for(int column = 0; column &amp;lt; Length.mrBrainTemp.Length; column++)" style="shape=hexagon;perimeter=hexagonPerimeter2;whiteSpace=wrap;html=1;fixedSize=1;" parent="AN06cRyhFbYd32eV-Q_g-1" vertex="1">
                    <mxGeometry x="1033.75" y="720" width="390" height="40" as="geometry"/>
                </mxCell>
                <mxCell id="AN06cRyhFbYd32eV-Q_g-70" value="" style="edgeStyle=none;html=1;" parent="AN06cRyhFbYd32eV-Q_g-1" source="AN06cRyhFbYd32eV-Q_g-27" target="AN06cRyhFbYd32eV-Q_g-69" edge="1">
                    <mxGeometry relative="1" as="geometry"/>
                </mxCell>
                <mxCell id="AN06cRyhFbYd32eV-Q_g-27" value="mrBrainTemp[column] = mrArray[0, column];" style="whiteSpace=wrap;html=1;" parent="AN06cRyhFbYd32eV-Q_g-1" vertex="1">
                    <mxGeometry x="1096.25" y="810" width="265" height="30" as="geometry"/>
                </mxCell>
                <mxCell id="AN06cRyhFbYd32eV-Q_g-29" value="end" style="ellipse;whiteSpace=wrap;html=1;" parent="AN06cRyhFbYd32eV-Q_g-1" vertex="1">
                    <mxGeometry x="1168.75" y="1000" width="120" height="60" as="geometry"/>
                </mxCell>
                <mxCell id="AN06cRyhFbYd32eV-Q_g-33" value="" style="edgeStyle=none;html=1;" parent="AN06cRyhFbYd32eV-Q_g-1" source="AN06cRyhFbYd32eV-Q_g-31" target="AN06cRyhFbYd32eV-Q_g-32" edge="1">
                    <mxGeometry relative="1" as="geometry"/>
                </mxCell>
                <mxCell id="AN06cRyhFbYd32eV-Q_g-31" value="void PrintArray(int[,] print)" style="ellipse;whiteSpace=wrap;html=1;" parent="AN06cRyhFbYd32eV-Q_g-1" vertex="1">
                    <mxGeometry x="1212.5" y="1190" width="160" height="60" as="geometry"/>
                </mxCell>
                <mxCell id="AN06cRyhFbYd32eV-Q_g-37" value="" style="edgeStyle=none;html=1;" parent="AN06cRyhFbYd32eV-Q_g-1" source="AN06cRyhFbYd32eV-Q_g-32" target="AN06cRyhFbYd32eV-Q_g-36" edge="1">
                    <mxGeometry relative="1" as="geometry"/>
                </mxCell>
                <mxCell id="AN06cRyhFbYd32eV-Q_g-32" value="for(int row = 0; row &amp;lt; print.GetLength(0); print++)" style="shape=hexagon;perimeter=hexagonPerimeter2;whiteSpace=wrap;html=1;fixedSize=1;" parent="AN06cRyhFbYd32eV-Q_g-1" vertex="1">
                    <mxGeometry x="1127.5" y="1285" width="330" height="55" as="geometry"/>
                </mxCell>
                <mxCell id="AN06cRyhFbYd32eV-Q_g-41" value="" style="edgeStyle=none;html=1;" parent="AN06cRyhFbYd32eV-Q_g-1" source="AN06cRyhFbYd32eV-Q_g-36" target="AN06cRyhFbYd32eV-Q_g-40" edge="1">
                    <mxGeometry relative="1" as="geometry"/>
                </mxCell>
                <mxCell id="AN06cRyhFbYd32eV-Q_g-45" value="" style="edgeStyle=none;html=1;" parent="AN06cRyhFbYd32eV-Q_g-1" source="AN06cRyhFbYd32eV-Q_g-36" target="AN06cRyhFbYd32eV-Q_g-44" edge="1">
                    <mxGeometry relative="1" as="geometry"/>
                </mxCell>
                <mxCell id="AN06cRyhFbYd32eV-Q_g-36" value="&lt;span&gt;for(int column = 0; column &amp;lt; printGetLength(1); column++)&lt;/span&gt;" style="shape=hexagon;perimeter=hexagonPerimeter2;whiteSpace=wrap;html=1;fixedSize=1;" parent="AN06cRyhFbYd32eV-Q_g-1" vertex="1">
                    <mxGeometry x="1127.5" y="1390" width="332.5" height="50" as="geometry"/>
                </mxCell>
                <mxCell id="AN06cRyhFbYd32eV-Q_g-56" style="edgeStyle=none;html=1;entryX=1;entryY=0.5;entryDx=0;entryDy=0;" parent="AN06cRyhFbYd32eV-Q_g-1" source="AN06cRyhFbYd32eV-Q_g-40" target="AN06cRyhFbYd32eV-Q_g-36" edge="1">
                    <mxGeometry relative="1" as="geometry">
                        <Array as="points">
                            <mxPoint x="1490" y="1545"/>
                            <mxPoint x="1490" y="1415"/>
                        </Array>
                    </mxGeometry>
                </mxCell>
                <mxCell id="AN06cRyhFbYd32eV-Q_g-40" value="Console.Write(print[row, column]);" style="shape=document;whiteSpace=wrap;html=1;boundedLbl=1;" parent="AN06cRyhFbYd32eV-Q_g-1" vertex="1">
                    <mxGeometry x="1197.5" y="1500" width="190" height="80" as="geometry"/>
                </mxCell>
                <mxCell id="AN06cRyhFbYd32eV-Q_g-46" style="edgeStyle=none;html=1;entryX=0;entryY=0.5;entryDx=0;entryDy=0;" parent="AN06cRyhFbYd32eV-Q_g-1" source="AN06cRyhFbYd32eV-Q_g-44" target="AN06cRyhFbYd32eV-Q_g-32" edge="1">
                    <mxGeometry relative="1" as="geometry">
                        <Array as="points">
                            <mxPoint x="990" y="1314"/>
                        </Array>
                    </mxGeometry>
                </mxCell>
                <mxCell id="AN06cRyhFbYd32eV-Q_g-44" value="Console.WriteLine();" style="whiteSpace=wrap;html=1;" parent="AN06cRyhFbYd32eV-Q_g-1" vertex="1">
                    <mxGeometry x="910" y="1395" width="160" height="40" as="geometry"/>
                </mxCell>
                <mxCell id="AN06cRyhFbYd32eV-Q_g-64" value="" style="edgeStyle=none;html=1;" parent="AN06cRyhFbYd32eV-Q_g-1" source="AN06cRyhFbYd32eV-Q_g-47" target="AN06cRyhFbYd32eV-Q_g-63" edge="1">
                    <mxGeometry relative="1" as="geometry"/>
                </mxCell>
                <mxCell id="AN06cRyhFbYd32eV-Q_g-47" value="FillArray(array);" style="whiteSpace=wrap;html=1;rounded=0;" parent="AN06cRyhFbYd32eV-Q_g-1" vertex="1">
                    <mxGeometry x="360.38" y="390" width="130.25" height="30" as="geometry"/>
                </mxCell>
                <mxCell id="AN06cRyhFbYd32eV-Q_g-55" value="" style="edgeStyle=none;html=1;" parent="AN06cRyhFbYd32eV-Q_g-1" source="AN06cRyhFbYd32eV-Q_g-51" target="AN06cRyhFbYd32eV-Q_g-54" edge="1">
                    <mxGeometry relative="1" as="geometry"/>
                </mxCell>
                <mxCell id="AN06cRyhFbYd32eV-Q_g-51" value="&lt;span&gt;Console.WriteLine();&lt;/span&gt;" style="shape=document;whiteSpace=wrap;html=1;boundedLbl=1;rounded=0;" parent="AN06cRyhFbYd32eV-Q_g-1" vertex="1">
                    <mxGeometry x="368" y="610" width="116" height="60" as="geometry"/>
                </mxCell>
                <mxCell id="AN06cRyhFbYd32eV-Q_g-54" value="PrintArray(array);" style="whiteSpace=wrap;html=1;rounded=0;" parent="AN06cRyhFbYd32eV-Q_g-1" vertex="1">
                    <mxGeometry x="363.5" y="700" width="125" height="20" as="geometry"/>
                </mxCell>
                <mxCell id="AN06cRyhFbYd32eV-Q_g-61" style="edgeStyle=none;html=1;entryX=0.5;entryY=0;entryDx=0;entryDy=0;" parent="AN06cRyhFbYd32eV-Q_g-1" source="AN06cRyhFbYd32eV-Q_g-57" target="AN06cRyhFbYd32eV-Q_g-4" edge="1">
                    <mxGeometry relative="1" as="geometry"/>
                </mxCell>
                <mxCell id="AN06cRyhFbYd32eV-Q_g-57" value="&lt;span&gt;int rowArray = int.Parse(Console.Readline());&lt;/span&gt;" style="shape=parallelogram;perimeter=parallelogramPerimeter;whiteSpace=wrap;html=1;fixedSize=1;" parent="AN06cRyhFbYd32eV-Q_g-1" vertex="1">
                    <mxGeometry x="275" y="198" width="300" height="30" as="geometry"/>
                </mxCell>
                <mxCell id="AN06cRyhFbYd32eV-Q_g-62" style="edgeStyle=none;html=1;entryX=0.5;entryY=0;entryDx=0;entryDy=0;" parent="AN06cRyhFbYd32eV-Q_g-1" source="AN06cRyhFbYd32eV-Q_g-59" target="AN06cRyhFbYd32eV-Q_g-47" edge="1">
                    <mxGeometry relative="1" as="geometry"/>
                </mxCell>
                <mxCell id="AN06cRyhFbYd32eV-Q_g-59" value="&lt;span&gt;int[] tempArray = new int[5];&lt;/span&gt;" style="whiteSpace=wrap;html=1;rounded=0;" parent="AN06cRyhFbYd32eV-Q_g-1" vertex="1">
                    <mxGeometry x="330" y="320" width="190" height="30" as="geometry"/>
                </mxCell>
                <mxCell id="AN06cRyhFbYd32eV-Q_g-67" value="" style="edgeStyle=none;html=1;" parent="AN06cRyhFbYd32eV-Q_g-1" source="AN06cRyhFbYd32eV-Q_g-63" target="AN06cRyhFbYd32eV-Q_g-66" edge="1">
                    <mxGeometry relative="1" as="geometry"/>
                </mxCell>
                <mxCell id="AN06cRyhFbYd32eV-Q_g-63" value="&lt;span&gt;PrintArray(array);&lt;/span&gt;" style="whiteSpace=wrap;html=1;rounded=0;" parent="AN06cRyhFbYd32eV-Q_g-1" vertex="1">
                    <mxGeometry x="352.76" y="460" width="145.5" height="30" as="geometry"/>
                </mxCell>
                <mxCell id="AN06cRyhFbYd32eV-Q_g-68" style="edgeStyle=none;html=1;entryX=0.5;entryY=0;entryDx=0;entryDy=0;" parent="AN06cRyhFbYd32eV-Q_g-1" source="AN06cRyhFbYd32eV-Q_g-66" target="AN06cRyhFbYd32eV-Q_g-51" edge="1">
                    <mxGeometry relative="1" as="geometry"/>
                </mxCell>
                <mxCell id="AN06cRyhFbYd32eV-Q_g-66" value="&lt;span&gt;SelectArray(array, tempArray, rowArray)&lt;/span&gt;" style="whiteSpace=wrap;html=1;rounded=0;" parent="AN06cRyhFbYd32eV-Q_g-1" vertex="1">
                    <mxGeometry x="306" y="530" width="240" height="40" as="geometry"/>
                </mxCell>
                <mxCell id="AN06cRyhFbYd32eV-Q_g-73" style="edgeStyle=none;html=1;entryX=0.5;entryY=0;entryDx=0;entryDy=0;" parent="AN06cRyhFbYd32eV-Q_g-1" source="AN06cRyhFbYd32eV-Q_g-69" target="AN06cRyhFbYd32eV-Q_g-71" edge="1">
                    <mxGeometry relative="1" as="geometry"/>
                </mxCell>
                <mxCell id="AN06cRyhFbYd32eV-Q_g-69" value="&lt;span&gt;mrArray[0, column] = mrArray[rowAr - 1, column];&lt;/span&gt;" style="whiteSpace=wrap;html=1;" parent="AN06cRyhFbYd32eV-Q_g-1" vertex="1">
                    <mxGeometry x="1096.25" y="870" width="265" height="30" as="geometry"/>
                </mxCell>
                <mxCell id="AN06cRyhFbYd32eV-Q_g-74" value="" style="edgeStyle=none;html=1;" parent="AN06cRyhFbYd32eV-Q_g-1" source="AN06cRyhFbYd32eV-Q_g-71" target="AN06cRyhFbYd32eV-Q_g-29" edge="1">
                    <mxGeometry relative="1" as="geometry"/>
                </mxCell>
                <mxCell id="AN06cRyhFbYd32eV-Q_g-71" value="&lt;span&gt;mrArray[rowAr - 1, column] = mrBrainTemp[column];&lt;/span&gt;" style="whiteSpace=wrap;html=1;" parent="AN06cRyhFbYd32eV-Q_g-1" vertex="1">
                    <mxGeometry x="1072.5" y="930" width="312.5" height="30" as="geometry"/>
                </mxCell>
            </root>
        </mxGraphModel>
    </diagram>
</mxfile>